<svg xmlns="http://www.w3.org/2000/svg" width="33" height="32" viewBox="0 0 33 32" fill="none">
  <path d="M23.1667 4.66675H9.83333C5.83333 4.66675 3.16666 6.66675 3.16666 11.3334V20.6667C3.16666 25.3334 5.83333 27.3334 9.83333 27.3334H23.1667C27.1667 27.3334 29.8333 25.3334 29.8333 20.6667V11.3334C29.8333 6.66675 27.1667 4.66675 23.1667 4.66675ZM23.7933 12.7867L19.62 16.1201C18.74 16.8267 17.62 17.1734 16.5 17.1734C15.38 17.1734 14.2467 16.8267 13.38 16.1201L9.20666 12.7867C8.78 12.4401 8.71333 11.8001 9.04666 11.3734C9.39333 10.9467 10.02 10.8667 10.4467 11.2134L14.62 14.5467C15.6333 15.3601 17.3533 15.3601 18.3667 14.5467L22.54 11.2134C22.9667 10.8667 23.6067 10.9334 23.94 11.3734C24.2867 11.8001 24.22 12.4401 23.7933 12.7867Z" fill="#FD853A"/>
</svg>